# xmcd CD database file
#
# Track frame offsets:
#	150
#	12975
#	24982
#	37572
#	48920
#	58875
#	71750
#	86177
#	96802
#	106940
#	117250
#	130687
#	141750
#	155332
#	165425
#	180120
#	190505
#	202597
#	213657
#	224007
#
# Disc length: 3139 seconds
#
# Revision: 3
# Processed by: cddbd v1.5PL3 Copyright (c) Steve Scherf et al.
# Submitted via: CDex 1.51
#
DISCID=050c4114
DTITLE=Hank Snow RCA 1949-1954 - I'm Movin On And Other Great Country Hits
DYEAR=1990
DGENRE=Country
TTITLE0=I'm Movin On
TTITLE1=Marriage Vow
TTITLE2=The Rhumba Boogie
TTITLE3=With This Ring I Thee Wed
TTITLE4=Down The Trail Of Achin' Hearts
TTITLE5=The Golden Rocket
TTITLE6=Stolen Moments
TTITLE7=Unwanted Sign Upon Your Heart
TTITLE8=Wreck Of The Old 97
TTITLE9=Silver Bell
TTITLE10=I Don't Hurt Anymore
TTITLE11=Music Makin' Mama From Memphis
TTITLE12=My Mother
TTITLE13=Would You Mind
TTITLE14=When Jimmie Rodgers Said Goodbye
TTITLE15=The Gold Rush Is Over
TTITLE16=The Gal Who Invented Kissin'
TTITLE17=Let Me Go, Lover
TTITLE18=Spanish Fire Ball
TTITLE19=One More Ride
EXTD=YEAR: 1990
EXTT0=
EXTT1=
EXTT2=
EXTT3=
EXTT4=
EXTT5=
EXTT6=
EXTT7=
EXTT8=
EXTT9=
EXTT10=
EXTT11=
EXTT12=
EXTT13=
EXTT14=
EXTT15=
EXTT16=
EXTT17=
EXTT18=
EXTT19=
PLAYORDER=
